<svg xmlns="http://www.w3.org/2000/svg" viewBox="0 0 276.12 223.55"><title>Asset 24</title><g id="Layer_2" data-name="Layer 2"><g id="Layer_2-2" data-name="Layer 2"><path fill="#f89c3c" d="M273.12,19.52v132.8a16.56,16.56,0,0,1-16.52,16.51H145.18l-21.86,48.1-27.11-48.1H19.52A16.56,16.56,0,0,1,3,152.32V19.52A16.56,16.56,0,0,1,19.52,3H256.6A16.56,16.56,0,0,1,273.12,19.52Z" fill="#ffd55e"/><path d="M123.61,223.55,94.45,171.83H19.52A19.54,19.54,0,0,1,0,152.32V19.52A19.55,19.55,0,0,1,19.52,0H256.6a19.54,19.54,0,0,1,19.52,19.52v132.8a19.53,19.53,0,0,1-19.52,19.51H147.12ZM19.52,6A13.53,13.53,0,0,0,6,19.52v132.8a13.53,13.53,0,0,0,13.52,13.51H98L123,210.31l20.21-44.48H256.6a13.53,13.53,0,0,0,13.52-13.51V19.52A13.53,13.53,0,0,0,256.6,6Z" fill="#515251"/></g></g></svg>