<svg width="61" height="61" viewBox="0 0 61 61" fill="none" xmlns="http://www.w3.org/2000/svg">
<path d="M58.4885 2.18076C57.5883 2.18076 56.5381 2.18076 55.6379 2.18076C49.4867 2.48069 43.6356 3.83039 38.0845 6.5298C31.3332 9.6791 25.6321 14.1781 21.1313 20.1768C17.9807 24.2259 15.7302 28.7249 14.0799 33.5238C13.9299 33.8238 14.0799 33.9737 14.2299 34.1237C15.5802 35.4734 16.9305 36.8231 18.2807 38.1728C18.4307 38.3228 18.5808 38.6227 18.5808 38.9226C18.5808 39.2226 18.4307 39.5225 18.1307 39.6725C17.8306 39.8224 17.3805 39.8224 17.2305 39.5225C16.4804 38.7727 15.8803 38.1728 15.1301 37.423C14.2299 36.5232 13.4798 35.6234 12.5796 34.8735C12.2796 34.5736 12.1295 34.1237 12.2796 33.6738C14.2299 27.8251 17.0805 22.4263 21.1313 17.6273C25.182 12.6784 30.133 8.7793 35.6841 5.92993C40.7851 3.23053 46.3361 1.58089 52.0372 0.831056C54.4377 0.531123 56.8381 0.381156 59.2386 0.531123C59.9888 0.531123 60.1388 0.831056 60.2888 1.58089C60.5889 11.3287 58.1884 20.3267 52.9374 28.7249C47.6864 36.9731 40.485 43.1217 31.4833 47.0208C30.133 47.6207 28.6327 48.0706 27.1324 48.6705C26.6823 48.8205 26.3823 48.8205 26.0822 48.3706C24.5819 46.8709 22.9316 45.2212 21.4313 43.7216C21.1313 43.4216 20.9812 42.9717 21.2813 42.5218C21.5814 42.0719 22.1815 42.0719 22.6316 42.5218C23.9818 43.8715 25.3321 45.2212 26.6823 46.5709C26.9824 46.8709 27.1324 46.8709 27.4325 46.7209C34.0338 44.4714 39.8849 40.8722 44.8358 36.0733C50.687 30.3745 54.5877 23.626 56.8381 15.9777C58.0384 11.7786 58.6385 7.4296 58.6385 2.93059C58.6385 2.63066 58.4885 2.48069 58.4885 2.18076Z" fill="#88CDCD"/>
<path d="M50.2369 19.7268C50.2369 24.8257 46.1861 28.8748 41.0851 28.8748C35.9841 28.8748 31.9333 24.8257 31.9333 19.7268C31.9333 14.7779 35.9841 10.5789 40.9351 10.5789C46.1861 10.5789 50.2369 14.628 50.2369 19.7268ZM48.4365 19.8768C48.4365 15.6777 45.1359 12.3785 40.9351 12.3785C36.7343 12.3785 33.4336 15.6777 33.4336 19.8768C33.4336 24.0759 36.7343 27.3751 40.9351 27.3751C45.1359 27.2252 48.4365 23.9259 48.4365 19.8768Z" fill="#88CDCD"/>
<path d="M27.2827 58.1183C28.3329 57.5185 29.3831 56.7686 30.2833 56.0188C33.2838 53.3194 34.9342 50.0201 35.6843 46.121C35.8343 45.5211 36.1344 45.2212 36.5845 45.2212C37.1846 45.2212 37.4847 45.6711 37.4847 46.271C37.3346 47.0208 37.1846 47.9206 36.8845 48.6704C35.2342 53.7693 32.2336 57.5185 27.5827 60.0679C26.5325 60.6678 26.0825 60.3678 25.9324 59.3181C25.3323 56.1688 24.7322 52.8695 24.1321 49.7202C24.1321 49.4203 24.1321 49.1203 24.1321 48.9704C24.2821 48.6704 24.5822 48.5205 25.0323 48.5205C25.3323 48.5205 25.6324 48.8204 25.7824 49.1203C25.9324 50.0201 26.0825 50.9199 26.3825 51.9697C26.5325 54.0692 26.9826 56.0188 27.2827 58.1183Z" fill="#88CDCD"/>
<path d="M2.52777 33.3738C3.42794 33.5238 4.32811 33.6737 5.07826 33.8237C7.17866 34.2736 9.27907 34.5735 11.2294 35.0234C11.3795 35.0234 11.3795 35.0234 11.5295 35.0234C11.9796 35.1734 12.2796 35.6233 12.1296 36.0732C11.9796 36.5231 11.6795 36.823 11.0794 36.6731C9.87918 36.3731 8.52892 36.2232 7.32869 35.9232C5.37831 35.4733 3.42794 35.1734 1.32753 34.7235C1.17751 34.7235 1.17751 34.7235 1.02748 34.7235C0.277332 34.5735 0.127303 34.1236 0.42736 33.3738C1.32753 31.7241 2.37774 30.0745 3.728 28.7248C6.57855 25.7255 10.0292 24.0758 13.93 23.176C14.08 23.176 14.23 23.176 14.23 23.0261C14.6801 22.8761 15.1302 23.176 15.2802 23.6259C15.4303 24.0758 15.1302 24.5257 14.5301 24.6757C13.6299 24.9756 12.5797 25.1256 11.6795 25.4255C7.77878 26.7752 4.7782 29.1747 2.52777 32.624C2.67779 33.0739 2.67779 33.2238 2.52777 33.3738Z" fill="#88CDCD"/>
<path d="M13.1799 46.7209C13.33 46.5709 13.48 46.271 13.63 46.121C16.4806 43.2716 19.1811 40.5722 22.0316 37.7228C23.0818 36.6731 23.982 35.7733 25.0322 34.7235C25.4823 34.2736 25.9324 34.2736 26.3825 34.5735C26.6825 34.8735 26.6825 35.4733 26.2324 35.9232C22.9318 39.2225 19.6312 42.6717 16.1805 45.971C15.7304 46.4209 15.2803 47.0208 14.6802 47.4707C14.3802 47.7706 14.0801 47.7706 13.78 47.6207C13.33 47.4707 13.1799 47.1708 13.1799 46.7209Z" fill="#88CDCD"/>
<path d="M9.27906 50.62C9.57912 50.77 9.87917 50.9199 10.0292 51.2199C10.1792 51.5198 10.0292 51.8197 9.87917 52.1197C9.72914 52.2696 9.42909 52.5696 9.27906 52.8695C7.47871 54.6691 5.67836 56.6187 3.72799 58.4183C3.42793 58.5682 3.2779 58.7182 2.97784 58.7182C2.67778 58.7182 2.37773 58.5682 2.2277 58.2683C2.07767 57.8184 2.07767 57.5185 2.37773 57.2185C3.57796 56.0188 4.77819 54.8191 5.97842 53.6193C6.87859 52.7195 7.62874 51.9697 8.52891 51.0699C8.82897 50.9199 8.979 50.77 9.27906 50.62Z" fill="#88CDCD"/>
<path d="M7.92886 44.4714C8.679 44.4714 9.12909 45.2213 8.82903 45.6712C8.679 45.8211 8.679 45.9711 8.52897 46.1211C6.5786 48.0706 4.62822 50.0202 2.67784 51.9698L2.52781 52.1197C2.07773 52.4197 1.62764 52.5696 1.32758 52.1197C1.02752 51.8198 1.02752 51.2199 1.32758 50.92C2.82787 49.4203 4.32816 47.9207 5.82845 46.421C6.42857 45.8211 6.87865 45.3712 7.47877 44.9213C7.6288 44.6214 7.92886 44.4714 7.92886 44.4714Z" fill="#88CDCD"/>
<path d="M16.3305 52.8696C16.3305 53.0196 16.1804 53.1696 16.0304 53.4695C13.93 55.569 11.9796 57.5186 9.87921 59.6182C9.42912 60.0681 8.97903 60.0681 8.52895 59.6182C8.22889 59.3182 8.22889 58.7184 8.67897 58.4184C10.7794 56.3189 12.7298 54.3693 14.8302 52.2698C15.1302 51.9698 15.4303 51.8199 15.8804 51.9698C16.1804 52.1198 16.3305 52.2698 16.3305 52.8696Z" fill="#88CDCD"/>
</svg>
