<svg width="18" height="21" viewBox="0 0 18 21" fill="none" xmlns="http://www.w3.org/2000/svg">
<path d="M17.4599 8.12994C17.3195 6.66886 16.8031 5.26903 15.9611 4.06676C15.119 2.8645 13.98 1.90077 12.6549 1.26944C11.3298 0.638098 9.86376 0.360663 8.3996 0.464146C6.93543 0.567629 5.52301 1.0485 4.29988 1.85994C3.24908 2.56259 2.36693 3.48924 1.71682 4.57333C1.06672 5.65743 0.664776 6.87205 0.539881 8.12994C0.417363 9.3796 0.574555 10.6409 1.00005 11.8222C1.42555 13.0036 2.10868 14.0754 2.99988 14.9599L8.29988 20.2699C8.39284 20.3637 8.50344 20.4381 8.6253 20.4888C8.74716 20.5396 8.87787 20.5657 9.00988 20.5657C9.14189 20.5657 9.2726 20.5396 9.39446 20.4888C9.51632 20.4381 9.62692 20.3637 9.71988 20.2699L14.9999 14.9599C15.8911 14.0754 16.5742 13.0036 16.9997 11.8222C17.4252 10.6409 17.5824 9.3796 17.4599 8.12994ZM13.5999 13.5499L8.99988 18.1499L4.39988 13.5499C3.72197 12.872 3.20268 12.0523 2.87935 11.1497C2.55601 10.2471 2.43667 9.28414 2.52988 8.32994C2.6237 7.36105 2.93164 6.4251 3.43145 5.58979C3.93126 4.75447 4.61044 4.04065 5.41988 3.49994C6.48083 2.79518 7.72619 2.41924 8.99988 2.41924C10.2736 2.41924 11.5189 2.79518 12.5799 3.49994C13.3869 4.03856 14.0646 4.74922 14.5642 5.58088C15.0639 6.41254 15.3732 7.34454 15.4699 8.30994C15.5661 9.26737 15.4483 10.2342 15.1249 11.1405C14.8014 12.0468 14.2805 12.8698 13.5999 13.5499ZM8.99988 4.49994C8.10986 4.49994 7.23984 4.76386 6.49982 5.25833C5.75979 5.7528 5.18302 6.4556 4.84242 7.27787C4.50183 8.10013 4.41271 9.00494 4.58635 9.87785C4.75998 10.7508 5.18856 11.5526 5.8179 12.1819C6.44724 12.8113 7.24906 13.2398 8.12197 13.4135C8.99489 13.5871 9.89969 13.498 10.722 13.1574C11.5442 12.8168 12.247 12.24 12.7415 11.5C13.236 10.76 13.4999 9.88996 13.4999 8.99994C13.4972 7.80728 13.0223 6.66422 12.1789 5.82088C11.3356 4.97754 10.1925 4.50258 8.99988 4.49994ZM8.99988 11.4999C8.50543 11.4999 8.02208 11.3533 7.61096 11.0786C7.19983 10.8039 6.8794 10.4135 6.69018 9.95665C6.50096 9.49984 6.45145 8.99717 6.54792 8.51222C6.64438 8.02726 6.88248 7.58181 7.23211 7.23218C7.58175 6.88254 8.0272 6.64444 8.51215 6.54798C8.99711 6.45152 9.49977 6.50102 9.95659 6.69024C10.4134 6.87946 10.8039 7.19989 11.0786 7.61102C11.3533 8.02214 11.4999 8.50549 11.4999 8.99994C11.4999 9.66298 11.2365 10.2989 10.7676 10.7677C10.2988 11.2366 9.66292 11.4999 8.99988 11.4999Z" fill="#F5993C"/>
</svg>
